<?xml version="1.0" encoding="UTF-8" standalone="no"?>
<!DOCTYPE svg PUBLIC "-//W3C//DTD SVG 1.1//EN" "http://www.w3.org/Graphics/SVG/1.1/DTD/svg11.dtd">
<svg width="100%" height="100%" viewBox="0 0 2481 3508" version="1.1" xmlns="http://www.w3.org/2000/svg" xmlns:xlink="http://www.w3.org/1999/xlink" xml:space="preserve" xmlns:serif="http://www.serif.com/" style="fill-rule:evenodd;clip-rule:evenodd;stroke-linejoin:round;stroke-miterlimit:2;">
    <g transform="matrix(4.569199,0,0,4.569199,-1430.292823,-1147.451574)">
        <path d="M665.77,671.053C665.645,671.061 665.52,671.07 665.395,671.078C665.37,672.283 665.332,673.509 665.283,674.75C663.855,685.602 662.302,696.445 660.624,707.278C660.302,707.299 659.981,707.32 659.659,707.341C659.603,710.04 659.48,712.842 659.294,715.719C658.048,723.458 656.736,731.192 655.362,738.922C654.883,738.953 654.403,738.984 653.924,739.016C653.853,742.444 653.684,746.025 653.398,749.737C651.451,760.235 649.389,770.725 647.206,781.207C646.485,781.254 645.764,781.3 645.043,781.347C644.954,785.657 644.705,790.213 644.266,794.966C642.992,800.805 641.692,806.642 640.344,812.476C640.023,808.946 639.703,805.415 639.381,801.884C638.574,801.866 637.767,801.848 636.96,801.83C635.723,797.086 634.406,792.379 633.012,787.705C632.693,784.439 632.374,781.173 632.055,777.906C631.35,777.888 630.646,777.87 629.941,777.852C628.254,772.664 626.473,767.519 624.593,762.419L622.841,753.817C622.324,753.798 621.808,753.779 621.291,753.759C617.325,743.682 612.983,733.775 608.27,724.035C607.577,722.084 606.883,720.134 606.19,718.183L605.38,718.183C601.817,711.093 598.058,704.091 594.108,697.177C593.362,695.187 592.615,693.197 591.869,691.207C591.43,691.048 590.974,691.01 590.549,691.07C586.278,683.858 581.799,676.741 577.111,669.718L574.219,663.788C573.833,663.776 573.448,663.765 573.063,663.753C572.99,663.648 572.92,663.541 572.848,663.436C564.062,650.703 561.57,647.384 559.315,644.804C558.795,644.21 557.908,643.211 556.753,641.993C549.55,633.014 542.347,624.034 535.143,615.055C539.041,618.706 542.939,622.357 546.836,626.008C546.65,622.297 546.463,618.586 546.276,614.875C547.876,618.967 549.725,623.29 551.869,627.784C554.061,632.379 556.307,636.623 558.529,640.513C559.263,637.59 559.913,633.879 560.01,629.56C560.08,626.408 559.842,623.597 559.49,621.218C561.746,626.515 563.984,632.418 566.034,638.899C568.021,645.183 569.55,651.122 570.734,656.604C572.11,650.081 573.486,643.557 574.862,637.034C576.621,647.617 578.38,658.2 580.139,668.783C581.793,662.387 583.447,655.99 585.101,649.593C588.612,660.907 592.123,672.222 595.634,683.536C594.673,654.685 589.048,627.475 568.112,605.782C558.244,595.556 546.165,588.891 532.738,584.527C531.76,584.209 530.769,583.927 529.801,583.58C529.557,583.493 529.379,583.221 528.484,582.417C533.052,583.095 536.86,583.66 540.668,584.225C540.827,583.908 540.986,583.592 541.145,583.276C536.291,580.447 531.436,577.618 526.581,574.79C526.605,574.413 526.629,574.037 526.653,573.661C536.444,574.931 546.235,576.201 556.366,577.516C553.096,575.019 549.825,572.522 546.019,569.617C558.561,568.352 569.811,570.94 580.668,575.881C577.064,571.068 573.46,566.255 569.855,561.442C583.602,560.007 596.252,563.374 609.089,570.848C605.052,562.554 599.257,557.965 591.256,554.781C602.195,555.009 612.284,558.194 623.573,566.282C619.856,561.412 616.14,556.543 612.423,551.673C621.779,554.153 631.134,556.633 640.906,559.224C630.457,546.651 617.36,538.878 601.446,534.22C601.916,529.506 602.398,524.676 602.88,519.846C605.184,524.788 607.488,529.731 609.792,534.673C610.126,524.903 610.459,515.134 610.792,505.364C613.705,511.797 616.618,518.229 619.531,524.662C620.587,511.644 621.533,499.968 622.48,488.291C624.599,497.391 626.717,506.49 628.836,515.59C630.191,504.069 631.546,492.549 632.901,481.028C635.612,488.814 638.322,496.6 641.033,504.386C640.864,492.405 641.277,480.85 645.123,469.199C648.462,476.769 651.8,484.338 655.139,491.907L655.139,459.993C657.986,468.499 660.833,477.006 663.679,485.512L664.241,485.367C665.386,476.027 666.532,466.688 667.677,457.348C669.084,463.868 670.492,470.388 672.149,478.07C673.812,471.655 675.474,465.241 677.136,458.826C678.638,530.067 674.832,600.761 665.77,671.053ZM804.897,465.303C810.633,472.155 814.593,478.886 817.33,484.507C815.652,478.012 812.513,468.697 806.328,458.751C801.706,451.317 789.891,434.625 769.99,425.539C759.827,420.898 748.415,418.511 735.682,418.644C731.835,418.684 728.495,417.774 725.373,416.465C728.162,416.574 730.951,416.683 733.74,416.791C729.879,414.389 726.018,411.986 722.156,409.584C728.978,410.728 735.799,411.873 742.621,413.017C733.526,407.609 724.432,402.2 715.338,396.792C727.207,399.906 739.077,403.02 750.946,406.134C743.119,399.619 735.292,393.104 727.465,386.589C739.585,389.996 751.704,393.403 763.823,396.81C762.179,394.597 760.268,392.274 758.051,389.927C752.934,384.51 747.702,380.567 743.206,377.727C753.113,380.683 763.02,383.64 772.926,386.597C767.006,381.342 761.085,376.088 755.165,370.833C767.672,374.312 780.179,377.79 792.686,381.268C790.661,378.746 788.17,376.009 785.137,373.276C779.51,368.204 773.897,364.842 769.374,362.619C782.547,366.171 795.72,369.723 808.893,373.276C806.842,370.74 804.075,367.765 800.457,364.839C797.357,362.333 794.371,360.459 791.798,359.066C796.846,358.49 803.287,358.221 810.669,359.066C819.7,360.1 827.088,362.453 832.427,364.617C825.03,359.48 818.059,356.125 812.303,353.885C783.689,342.748 758.113,348.722 750.541,350.713C743.536,352.555 736.591,355.279 729.718,359.006C720.199,364.169 711.988,370.625 704.77,378.05C702.362,378.81 699.902,379.564 696.98,379.707C700.818,376.379 704.476,372.809 708.544,369.79C712.623,366.763 717.11,364.284 721.273,361.146C713.469,363.008 705.664,364.871 696.569,367.041C701.297,362.575 706.639,357.905 712.626,353.204C718.452,348.63 724.101,344.645 729.427,341.181L706.269,344.782L705.676,344.174C715.502,338.002 725.327,331.83 735.21,325.623C728.537,326.797 721.783,327.985 715.03,329.173C717.888,325.546 722.53,320.55 729.41,316.217C734.464,313.034 739.232,311.148 742.954,310C734.299,311.35 720.004,314.938 706.32,325.541C691.093,337.341 684.29,351.889 680.258,360.775C676.282,369.535 674.185,377.31 673.018,382.786C670.969,378.09 668.578,373.604 665.83,369.321C663.689,365.984 657.967,357.507 649.253,349.769C633.278,335.584 615.469,331.175 606.634,329.094C598.167,327.099 584.691,324.977 568.002,326.873C575.354,327.781 584.14,329.476 593.756,332.646C600.664,334.923 606.718,337.538 611.879,340.12L593.618,340.12C604.392,343.14 614.604,346.876 624.006,354.271C610.903,351.11 607.584,350.957 602.191,353.254C615.204,356.865 626.639,362.772 636.95,373.364L619.742,373.364C630.134,378.408 639.894,383.749 648.625,392.811C645.383,392.26 643.368,391.889 641.343,391.582C639.478,391.3 637.602,391.087 635.937,390.87C644.133,396.403 652.245,401.879 660.357,407.355C660.16,407.652 659.962,407.949 659.765,408.246C654.439,406.84 649.114,405.434 643.789,404.028C643.756,404.241 643.723,404.453 643.69,404.666C648.486,408.302 653.283,411.938 658.079,415.574C636.54,406.576 623.783,402.33 611.305,401.309C601.34,400.494 593.449,401.662 589.046,402.372C579.297,403.942 555.745,408.075 537.364,427.67C532.708,432.634 525.408,441.762 520.49,455.867C525.111,451.073 531.467,445.443 539.806,440.325C544.789,437.267 549.545,434.966 553.793,433.221C552.364,436.874 550.935,440.527 549.506,444.18C552.971,441.099 557.729,437.44 563.861,434.134C569.85,430.905 575.392,428.961 579.798,427.756C572.964,432.081 568.331,437.926 566.425,445.815C577.025,436.828 589.049,431.529 603.287,429.984C601.282,432.979 599.426,435.448 597.906,438.109C596.468,440.626 595.383,443.345 594.143,445.975C604.565,439.49 615.064,434.949 627.633,433.989C625.466,436.256 623.892,437.817 622.418,439.469C621.049,441.005 619.788,442.638 618.48,444.228C633.664,437.562 642.642,434.819 647.192,435.752C643.267,439.194 639.09,442.858 634.913,446.521C635.14,446.765 635.368,447.009 635.596,447.252C639.187,446.067 642.779,444.883 646.371,443.698C630.14,452.587 616.998,464.279 608.257,480.611C599.521,496.937 597.141,514.673 597.164,533.174C564.969,527.425 537.772,537.621 513.497,557.783C513.292,557.476 513.086,557.169 512.882,556.863C516.849,552.553 520.818,548.244 524.785,543.935C524.646,543.702 524.507,543.47 524.368,543.237C519.482,545.593 514.597,547.949 509.712,550.305C509.463,550.003 509.215,549.702 508.966,549.4C516.109,542.433 523.253,535.466 530.259,528.633C526.559,529.929 522.482,531.357 517.719,533.027C520.741,528.937 524.557,524.349 529.307,519.667C533.972,515.068 538.531,511.371 542.6,508.436C537.206,509.317 531.812,510.198 526.418,511.079C529.351,506.879 533.556,501.689 539.375,496.538C545.26,491.328 550.988,487.759 555.551,485.351C549.037,486.684 542.523,488.018 536.01,489.351C543.052,481.669 551.984,476.227 561.914,472.204C561.756,471.772 561.598,471.34 561.44,470.909C556.078,472.075 550.715,473.24 544.017,474.697C552.428,467.958 559.972,461.914 568.259,455.275C543.38,459.701 524.206,471.809 509.362,490.85C498.898,504.271 492.835,519.138 490.437,535.468C490.648,530.317 491.172,525.391 491.882,520.546C491.711,520.395 491.54,520.245 491.369,520.094C489.299,525.709 487.229,531.325 485.052,537.227C483.595,527.306 483.926,518.227 484.657,508.959C484.01,510.644 483.318,512.284 482.727,514.027C482.129,515.789 481.587,517.614 481.101,519.482C480.594,521.431 480.181,523.464 479.21,525.315C479.029,521.558 478.703,517.752 478.709,514.058C478.715,510.353 479.052,506.759 479.04,502.95C477.501,507.817 475.962,512.684 474.169,518.355C472.979,507.251 473.38,497.691 474.331,488.309C474.102,488.099 473.874,487.889 473.645,487.679L468.332,501.032C468.195,501.014 468.059,500.995 467.923,500.977C468.373,492.687 468.824,484.396 469.276,476.057C467.798,479.982 466.302,483.954 464.806,487.926C464.625,487.843 464.443,487.759 464.262,487.676C464.336,478.075 464.41,468.475 464.484,458.828C460.513,471.181 454.628,496.186 464.245,523.139C466.36,529.065 468.939,534.288 471.646,538.828C464.609,532.03 451.955,521.63 433.431,515.315C433.431,515.315 424.427,512.264 415.053,510.94C389.554,507.341 348.575,519.882 332.181,536.256C344.548,531.487 356.855,526.74 369.163,521.994C369.323,522.333 369.483,522.672 369.643,523.011C364.982,528.04 360.32,533.069 355.714,538.039C366.29,533.103 376.804,528.197 387.319,523.29C382.186,529.4 377.054,535.509 371.922,541.619C377.721,539.024 384.133,536.44 391.135,534.027C398.332,531.547 405.153,529.592 411.47,528.042C404.713,534.506 398.915,540.053 393.117,545.599C398.012,543.804 402.528,541.379 407.284,539.594C412.026,537.815 417.01,536.677 421.887,535.258C419.796,538.176 417.306,540.01 414.951,542.004C412.696,543.915 410.511,545.921 408.424,548.014C406.359,550.084 404.456,552.315 402.483,554.476C408.923,552.287 415.401,550.057 421.913,547.783C427.618,545.791 433.28,543.791 438.9,541.782C435.083,545.538 431.12,549.748 427.131,554.443C424.351,557.716 421.807,560.931 419.483,564.047C425.091,561.562 431.542,559.074 438.787,556.886C445.409,554.885 451.606,553.463 457.215,552.445C448.649,558.242 440.083,564.038 431.517,569.834C442.599,566.702 453.681,563.57 464.763,560.438C460.558,561.83 455.938,563.603 451.053,565.877C446.7,567.904 442.795,570.023 439.342,572.094C442.302,571.844 446.374,571.625 451.22,571.761C456.082,571.897 462.219,572.404 462.21,572.76C462.198,573.225 451.74,572.366 441.455,573.615C435.262,574.367 418.843,577.105 403.264,588.598C390.459,598.044 380.914,611.463 374.337,628.437C371.2,636.533 369.159,645.054 366.615,653.38C372.671,643.057 378.726,632.734 384.782,622.411C385.17,628.492 385.557,634.573 385.945,640.653C389.499,630.96 392.78,621.249 398.427,612.49C399.452,619.81 400.477,627.129 401.502,634.449C405.04,622.819 410.068,611.963 418.193,601.536L418.193,624.559C418.952,621.381 420.455,616.749 423.611,611.855C427.475,605.864 432.075,602.18 435.013,600.179L431.392,626.136C434.201,620.685 437.388,614.965 441.007,609.06C443.969,604.228 446.948,599.715 449.888,595.517C449.68,604.152 449.473,612.787 449.265,621.422C449.961,616.899 451.78,609.186 457.167,601.32C460.546,596.387 464.28,592.925 467.205,590.633C470.24,588.56 473.274,586.488 476.308,584.416C473.81,586.904 470.424,590.485 466.761,595.073C460.268,603.207 445.406,622.305 441,651.303C441,651.303 437.172,678.267 445.535,702.626C448.935,712.53 454.122,721.547 461.462,729.408C459.501,719.496 457.603,709.905 455.466,699.109C459.552,703.658 463.638,708.206 467.724,712.755C462.371,703.025 459.316,692.689 458.82,680.847C460.785,684.773 462.114,688.203 464.108,691.187C466.025,694.057 468.631,696.466 470.934,699.077C469.077,694.054 467.165,687.534 466.09,679.773C465.02,672.048 465.083,665.284 465.499,659.962C469.444,664.518 472.933,668.548 476.422,672.578C475.202,667.738 474.098,661.965 473.519,655.41C472.931,648.744 473.019,642.775 473.389,637.734C475.951,642.153 478.039,645.754 479.962,649.07C479.134,639.292 478.298,629.423 477.462,619.553L478.496,619.456C480.705,624.384 482.914,629.311 485.124,634.239C485.526,625.067 485.929,615.896 486.332,606.724C486.765,606.692 487.198,606.66 487.631,606.628C488.664,609.13 489.697,611.631 490.909,614.565C492.263,607.344 493.501,600.742 494.929,593.131C503.47,601.751 507.484,611.068 510.05,621.262C510.413,616.229 510.775,611.195 511.189,605.447C517.994,611.913 516.549,620.542 519.534,628.101C520.146,624.291 520.669,621.041 521.19,617.792C521.602,617.651 522.013,617.509 522.422,617.368C525.305,622.044 528.187,626.719 530.772,630.914C530.735,630.989 530.708,631.044 530.68,631.099C530.7,631.069 530.719,631.04 530.741,631.01C531.043,630.607 531.429,630.268 531.799,629.88C538.372,638.329 544.589,646.96 550.482,655.765C550.068,655.886 549.655,656.007 549.242,656.128C552.07,659.736 554.898,663.344 557.726,666.951C561.948,673.7 565.989,680.547 569.821,687.51C569.72,687.963 569.677,688.484 569.667,688.987L574.987,697.215C578.233,703.497 581.326,709.865 584.261,716.325C583.985,716.537 583.709,716.749 583.433,716.962C585.943,721.938 588.453,726.914 590.963,731.889C592.482,735.614 593.956,739.352 595.367,743.107C595.052,743.569 594.737,744.03 594.423,744.492C596.232,748.212 598.041,751.932 599.85,755.653C601.014,759.082 602.121,762.527 603.191,765.983C602.933,766.257 602.674,766.531 602.415,766.805C603.257,768.466 604.098,770.126 604.939,771.787C606.148,775.917 607.29,780.065 608.36,784.235C608.007,784.346 607.653,784.456 607.3,784.567C608.347,787.238 609.383,789.94 610.415,792.656C611.738,798.358 612.937,804.096 613.99,809.877L612.739,810.765C613.076,812.428 613.397,814.128 613.72,815.821C602.064,795.039 584.18,777.757 562.911,766.989C571.402,777.97 583.893,786.174 589.15,799.021C580.086,793.424 569.672,790.032 559.05,789.219C571.457,796.178 584.177,803.395 593.137,814.444C589.212,813.614 585.197,813.203 581.185,813.222C585.087,815.667 588.752,818.481 592.156,821.582C522.237,827.118 471.541,843.523 471.541,862.903C471.541,886.83 548.809,906.226 644.124,906.226C739.439,906.226 816.707,886.83 816.707,862.903C816.707,842.835 762.338,825.958 688.562,821.036C691.523,819.55 694.8,818.138 698.395,816.918C707.432,813.853 716.888,813.29 726.419,812.825C726.532,812.819 720.916,812.728 696.241,813.31C703.612,808.815 715.628,802.992 731.193,801.729C736.153,801.326 740.705,801.449 744.736,801.84C746.968,803.134 749.907,804.578 753.506,805.725C757.087,806.867 760.304,807.39 762.865,807.628C758.891,806.136 755.185,803.936 751.972,801.162C749.959,799.424 747.92,797.02 745.263,796.905C729.743,796.229 713.746,795.622 699.156,800.957C696.435,801.953 693.764,802.702 690.934,803.325C692.966,802.08 694.998,800.834 697.03,799.589C698.579,798.64 700.129,797.689 701.615,796.644C709.485,791.105 715.347,782.593 718.06,773.36C714.602,776.124 711.145,778.888 707.687,781.653C705.092,783.727 702.495,785.803 699.766,787.697C691.694,793.298 682.1,797.302 676.997,805.699C678.471,799.654 681.513,794.127 684.523,788.682C685.95,786.099 687.228,783.424 688.656,780.841C681.005,789.207 674.605,798.71 669.688,808.925C670.282,806.25 670.874,803.573 671.463,800.885C673.042,793.682 674.596,786.503 676.126,779.349C674.903,778.746 673.68,778.143 672.458,777.54C673.376,771.594 674.267,765.646 675.112,759.694C675.425,758.276 675.74,756.866 676.052,755.445C677.63,748.242 679.185,741.063 680.714,733.909C680.03,733.572 679.346,733.235 678.663,732.897C680.101,721.252 681.399,709.595 682.559,697.928C683.175,695.073 683.806,692.204 684.414,689.357C684.088,689.196 683.762,689.036 683.436,688.875C684.333,679.249 685.132,669.616 685.842,659.977C686.428,656.137 687.026,652.285 687.6,648.46C687.29,648.331 686.98,648.201 686.671,648.072C687.092,641.641 687.471,635.208 687.809,628.771C688.606,623.584 689.406,618.394 690.18,613.233C689.646,613.01 689.111,612.786 688.576,612.562C690.681,562.05 690.239,511.353 687.278,460.482C687.998,462.904 688.718,465.326 689.438,467.748C689.68,467.722 689.921,467.695 690.163,467.668C690.669,465.053 691.175,462.438 691.827,459.072C696.536,467.845 697.595,476.799 699.496,485.89C700.68,480.819 701.863,475.748 703.047,470.678C703.439,470.65 703.831,470.621 704.223,470.593C705.195,480.104 706.168,489.616 707.197,499.687C708.619,495.656 709.928,491.942 711.321,487.989C714.716,496.248 715.488,507.35 714.598,522.864C717.439,518 720.279,513.135 723.877,506.975C724.835,514.562 726.209,521.069 726.327,527.599C726.443,534.093 725.298,540.609 724.686,547.341C730.059,541.852 732.093,535.014 733.48,526.983C733.367,532.764 732.928,539.147 731.964,546.007C731.378,550.175 730.656,554.103 729.854,557.774C733.259,553.622 736.664,549.47 740.069,545.319C739.623,551.857 738.583,559.551 736.404,567.987C734.999,573.427 733.34,578.323 731.631,582.64C738.038,577.384 741.707,572.209 743.789,568.738C763.265,536.271 742.308,487.752 721.594,459.79C717.271,453.954 712.846,448.952 708.615,444.692C716.521,452.258 724.428,459.825 732.335,467.391C732.334,464.749 732.02,461.335 730.817,457.569C727.921,448.512 721.718,443.173 718.828,440.991C723.85,444.454 729.562,448.922 735.405,454.609C740.945,460 745.378,465.294 748.874,470.002C748.43,466.391 747.636,462.114 746.21,457.421C744.838,452.906 743.196,449.042 741.621,445.876C745.076,447.757 749.806,450.85 754.388,455.756C760.385,462.178 763.413,468.8 764.933,472.962C764.891,468.902 764.569,464.22 763.712,459.086C762.551,452.122 760.718,446.185 758.885,441.439C762.03,444.301 765.341,447.643 768.644,451.52C775.081,459.076 779.66,466.512 782.917,472.851C782.344,464.719 781.772,456.586 781.199,448.454C786.737,456.908 792.275,465.362 798.036,474.157C797.244,467.803 796.497,461.813 795.75,455.822C798.677,458.457 801.795,461.597 804.897,465.303Z" style="fill:rgb(35,31,32);fill-rule:nonzero;"/>
    </g>
</svg>
