<?xml version="1.0" encoding="UTF-8" standalone="no"?>
<!DOCTYPE svg PUBLIC "-//W3C//DTD SVG 1.1//EN" "http://www.w3.org/Graphics/SVG/1.1/DTD/svg11.dtd">
<svg width="100%" height="100%" viewBox="0 0 2481 3508" version="1.1" xmlns="http://www.w3.org/2000/svg" xmlns:xlink="http://www.w3.org/1999/xlink" xml:space="preserve" xmlns:serif="http://www.serif.com/" style="fill-rule:evenodd;clip-rule:evenodd;stroke-linejoin:round;stroke-miterlimit:2;">
    <g transform="matrix(4.166667,0,0,4.166667,-4664.077972,-674.480164)">
        <path d="M1304.39,631.099C1304.22,631.353 1304.15,631.572 1304.39,631.099Z" style="fill:white;fill-rule:nonzero;"/>
    </g>
    <g transform="matrix(4.166667,0,0,4.166667,-4664.077972,-674.480164)">
        <path d="M1667.82,630.41C1667.82,486.568 1551.21,369.961 1407.37,369.961C1263.53,369.961 1146.92,486.568 1146.92,630.41C1146.92,733.637 1206.98,822.82 1294.06,864.963C1291.28,866.068 1288.46,867.262 1285.61,868.569C1269.45,875.976 1256.78,884.704 1247.48,892.237C1259.47,885.613 1273.96,878.864 1290.87,873.302C1295.24,871.864 1299.55,870.579 1303.8,869.431C1304.25,869.626 1304.69,869.828 1305.14,870.02C1314.83,867.091 1326.32,864.553 1339.19,862.511C1354.07,860.681 1367.37,860.365 1378.44,860.679C1376.59,858.951 1374.37,857.137 1371.73,855.42C1369.36,853.875 1367.01,852.641 1364.74,851.644C1367.69,851.704 1370.63,852.026 1373.52,852.638C1366.04,843.409 1355.42,837.381 1345.05,831.569C1353.93,832.249 1362.62,835.082 1370.19,839.756C1365.8,829.026 1355.37,822.174 1348.28,813.003C1366.04,821.997 1380.98,836.43 1390.72,853.788C1390.44,852.373 1390.18,850.954 1389.9,849.565L1390.94,848.823C1390.06,843.995 1389.06,839.202 1387.95,834.44C1387.09,832.171 1386.23,829.915 1385.35,827.684C1385.65,827.592 1385.94,827.499 1386.24,827.407C1385.34,823.924 1384.39,820.459 1383.38,817.01C1382.68,815.623 1381.98,814.236 1381.27,812.849C1381.49,812.621 1381.71,812.392 1381.92,812.163C1381.03,809.277 1380.1,806.399 1379.13,803.535C1377.62,800.428 1376.11,797.321 1374.6,794.214C1374.86,793.828 1375.12,793.442 1375.39,793.057C1374.21,789.92 1372.98,786.799 1371.71,783.688C1369.61,779.532 1367.52,775.376 1365.42,771.22C1365.65,771.043 1365.88,770.865 1366.11,770.688C1363.66,765.293 1361.08,759.974 1358.37,754.728L1353.92,747.856C1353.93,747.436 1353.97,747 1354.05,746.622C1350.85,740.806 1347.47,735.088 1343.95,729.451C1341.59,726.438 1339.22,723.425 1336.86,720.412C1337.21,720.311 1337.55,720.21 1337.9,720.109C1332.98,712.755 1327.78,705.546 1322.29,698.489C1321.99,698.813 1321.66,699.097 1321.41,699.433C1321.39,699.458 1321.38,699.483 1321.36,699.507C1321.16,699.903 1321.22,699.72 1321.36,699.507C1321.38,699.462 1321.41,699.416 1321.44,699.353C1319.28,695.849 1316.87,691.944 1314.46,688.039C1314.12,688.157 1313.78,688.275 1313.43,688.393C1313,691.107 1312.56,693.821 1312.05,697.004C1309.56,690.69 1310.76,683.483 1305.08,678.083C1304.74,682.884 1304.43,687.088 1304.13,691.291C1301.99,682.777 1298.63,674.996 1291.5,667.797C1290.31,674.153 1289.27,679.667 1288.14,685.698C1287.13,683.248 1286.27,681.159 1285.4,679.069C1285.04,679.096 1284.68,679.123 1284.32,679.149L1283.31,702.13C1281.47,698.014 1279.62,693.899 1277.78,689.783L1276.91,689.864C1277.61,698.107 1278.31,706.35 1279,714.517C1277.39,711.747 1275.65,708.739 1273.51,705.049C1273.2,709.259 1273.13,714.244 1273.62,719.812C1274.1,725.287 1275.02,730.109 1276.04,734.151C1273.13,730.785 1270.22,727.419 1266.92,723.614C1266.57,728.059 1266.52,733.708 1267.41,740.16C1268.31,746.642 1269.91,752.087 1271.46,756.283C1269.54,754.102 1267.36,752.09 1265.76,749.693C1264.09,747.201 1262.98,744.336 1261.34,741.057C1261.76,750.947 1264.31,759.58 1268.78,767.706C1265.37,763.908 1261.95,760.108 1258.54,756.31C1260.33,765.327 1261.91,773.337 1263.55,781.615C1257.42,775.05 1253.09,767.519 1250.25,759.247C1243.26,738.902 1246.46,716.382 1246.46,716.382C1250.14,692.163 1262.55,676.212 1267.97,669.418C1271.03,665.586 1273.86,662.596 1275.95,660.518C1273.41,662.248 1270.88,663.979 1268.35,665.71C1265.9,667.624 1262.78,670.516 1259.96,674.636C1255.46,681.205 1253.94,687.647 1253.36,691.425C1253.54,684.213 1253.71,677.001 1253.88,669.789C1251.43,673.295 1248.94,677.065 1246.46,681.1C1243.44,686.032 1240.78,690.81 1238.43,695.362L1241.46,673.683C1239,675.354 1235.16,678.431 1231.94,683.435C1229.3,687.522 1228.04,691.391 1227.41,694.045L1227.41,674.816C1220.62,683.525 1216.42,692.592 1213.47,702.305C1212.61,696.192 1211.76,690.078 1210.9,683.965C1206.19,691.281 1203.45,699.391 1200.48,707.487C1200.15,702.408 1199.83,697.33 1199.51,692.251C1194.45,700.873 1189.39,709.494 1184.33,718.116C1186.46,711.162 1188.16,704.046 1190.78,697.284C1196.28,683.107 1204.25,671.899 1214.94,664.01C1227.95,654.412 1241.67,652.125 1246.84,651.497C1255.43,650.454 1264.16,651.171 1264.17,650.782C1264.18,650.485 1259.06,650.062 1254.99,649.948C1250.95,649.835 1247.55,650.017 1245.07,650.226C1247.96,648.497 1251.22,646.727 1254.86,645.034C1258.94,643.134 1262.79,641.654 1266.31,640.491C1257.05,643.107 1247.79,645.723 1238.54,648.339C1245.69,643.498 1252.85,638.657 1260,633.816C1255.32,634.666 1250.14,635.853 1244.61,637.524C1238.56,639.352 1233.17,641.43 1228.49,643.505C1230.43,640.902 1232.55,638.218 1234.88,635.484C1238.21,631.563 1241.52,628.046 1244.71,624.91C1240.01,626.587 1235.28,628.258 1230.52,629.922C1225.08,631.821 1219.67,633.684 1214.29,635.511C1215.94,633.707 1217.53,631.844 1219.25,630.115C1220.99,628.367 1222.82,626.691 1224.7,625.095C1226.67,623.43 1228.75,621.898 1230.5,619.461C1226.42,620.646 1222.26,621.596 1218.3,623.082C1214.33,624.573 1210.56,626.598 1206.47,628.098C1211.31,623.465 1216.15,618.833 1221.8,613.434C1216.52,614.729 1210.82,616.361 1204.81,618.433C1198.96,620.448 1193.61,622.606 1188.76,624.774C1193.05,619.671 1197.34,614.568 1201.62,609.465C1192.84,613.563 1184.06,617.661 1175.23,621.783C1179.08,617.633 1182.97,613.432 1186.86,609.232C1186.73,608.949 1186.59,608.666 1186.46,608.382C1176.18,612.347 1165.9,616.311 1155.57,620.294C1169.27,606.619 1203.49,596.145 1224.79,599.151C1232.62,600.256 1240.14,602.804 1240.14,602.804C1255.61,608.078 1266.18,616.765 1272.05,622.443C1269.79,618.65 1267.64,614.288 1265.87,609.339C1257.84,586.828 1262.76,565.943 1266.07,555.626C1266.01,563.683 1265.95,571.702 1265.89,579.72C1266.04,579.79 1266.19,579.859 1266.34,579.929C1267.59,576.612 1268.84,573.294 1270.08,570.016C1269.7,576.981 1269.32,583.905 1268.95,590.829C1269.06,590.844 1269.17,590.86 1269.29,590.875L1273.72,579.723C1273.92,579.898 1274.11,580.073 1274.3,580.249C1273.5,588.084 1273.17,596.069 1274.16,605.344C1275.66,600.607 1276.94,596.542 1278.23,592.477C1278.24,595.659 1277.96,598.66 1277.95,601.754C1277.95,604.84 1278.22,608.019 1278.37,611.156C1279.18,609.61 1279.53,607.912 1279.95,606.284C1280.36,604.724 1280.81,603.2 1281.31,601.728C1281.8,600.273 1282.38,598.903 1282.92,597.496C1282.31,605.237 1282.03,612.819 1283.25,621.105C1285.07,616.176 1286.8,611.486 1288.53,606.796L1288.96,607.173C1288.36,611.22 1287.93,615.334 1287.75,619.636C1289.75,605.997 1294.82,593.58 1303.55,582.371C1315.95,566.468 1331.97,556.355 1352.75,552.658C1345.82,558.203 1339.52,563.251 1332.5,568.88C1338.09,567.664 1342.57,566.69 1347.05,565.716C1347.18,566.077 1347.31,566.437 1347.45,566.798C1339.15,570.157 1331.69,574.703 1325.81,581.119C1331.25,580.006 1336.69,578.892 1342.13,577.778C1338.32,579.789 1333.54,582.771 1328.62,587.122C1323.76,591.424 1320.25,595.758 1317.8,599.267C1322.31,598.531 1326.81,597.795 1331.32,597.059C1327.92,599.51 1324.11,602.598 1320.21,606.439C1316.25,610.35 1313.06,614.182 1310.53,617.597C1314.51,616.203 1317.92,615.01 1321.01,613.927C1315.16,619.634 1309.19,625.453 1303.22,631.272C1303.43,631.524 1303.64,631.776 1303.85,632.028C1307.93,630.06 1312.01,628.093 1316.09,626.125C1316.2,626.319 1316.32,626.513 1316.44,626.708C1313.12,630.307 1309.81,633.906 1306.5,637.505C1306.67,637.761 1306.84,638.018 1307.01,638.274C1327.28,621.434 1350,612.919 1376.89,617.72C1376.87,602.268 1378.86,587.455 1386.15,573.82C1393.45,560.179 1404.43,550.413 1417.99,542.99C1414.99,543.979 1411.99,544.969 1408.99,545.958C1408.8,545.755 1408.61,545.551 1408.42,545.348C1411.9,542.288 1415.39,539.228 1418.67,536.353C1414.87,535.574 1407.37,537.865 1394.69,543.432C1395.78,542.104 1396.84,540.74 1397.98,539.458C1399.21,538.078 1400.53,536.774 1402.34,534.881C1391.84,535.683 1383.07,539.475 1374.36,544.892C1375.4,542.695 1376.31,540.424 1377.51,538.321C1378.78,536.099 1380.33,534.037 1382,531.536C1370.11,532.826 1360.07,537.252 1351.21,544.758C1352.81,538.169 1356.68,533.287 1362.38,529.675C1358.7,530.681 1354.07,532.305 1349.07,535.002C1343.95,537.763 1339.98,540.819 1337.08,543.392C1338.28,540.341 1339.47,537.29 1340.66,534.239C1337.12,535.696 1333.14,537.619 1328.98,540.173C1322.02,544.447 1316.71,549.149 1312.85,553.153C1316.96,541.372 1323.05,533.749 1326.94,529.603C1342.29,513.237 1361.96,509.785 1370.11,508.474C1373.78,507.881 1380.38,506.906 1388.7,507.587C1399.12,508.439 1409.77,511.986 1427.76,519.5C1423.76,516.463 1419.75,513.427 1415.75,510.39C1415.77,510.212 1415.8,510.035 1415.83,509.857C1420.28,511.031 1424.72,512.206 1429.17,513.38C1429.34,513.132 1429.5,512.884 1429.67,512.636C1422.89,508.062 1416.12,503.489 1409.27,498.868C1410.66,499.049 1412.23,499.226 1413.79,499.462C1415.48,499.718 1417.16,500.029 1419.87,500.488C1412.58,492.92 1404.42,488.459 1395.74,484.246L1410.12,484.246C1401.51,475.4 1391.95,470.466 1381.09,467.451C1385.59,465.532 1388.36,465.66 1399.31,468.3C1391.45,462.124 1382.92,459.003 1373.93,456.481L1389.18,456.481C1384.87,454.325 1379.81,452.14 1374.04,450.239C1366.01,447.591 1358.67,446.175 1352.53,445.418C1366.47,443.834 1377.73,445.606 1384.8,447.272C1392.18,449.01 1407.05,452.692 1420.39,464.54C1427.67,471.003 1432.45,478.083 1434.24,480.87C1436.53,484.447 1438.53,488.194 1440.24,492.116C1441.22,487.542 1442.97,481.049 1446.29,473.732C1449.66,466.311 1455.34,454.16 1468.06,444.305C1479.48,435.449 1491.42,432.453 1498.65,431.325C1495.54,432.283 1491.56,433.858 1487.34,436.517C1481.59,440.136 1477.72,444.309 1475.33,447.338C1480.97,446.346 1486.61,445.354 1492.18,444.373C1483.93,449.558 1475.72,454.712 1467.52,459.867L1468.01,460.375L1487.35,457.367C1482.91,460.26 1478.19,463.589 1473.32,467.409C1468.32,471.335 1463.86,475.235 1459.91,478.965C1467.51,477.153 1474.03,475.597 1480.54,474.042C1477.07,476.663 1473.32,478.733 1469.91,481.262C1466.52,483.783 1463.46,486.764 1460.25,489.544C1462.69,489.425 1464.75,488.795 1466.76,488.161C1472.79,481.958 1479.65,476.566 1487.6,472.255C1493.34,469.142 1499.14,466.867 1504.99,465.328C1511.31,463.665 1532.67,458.676 1556.57,467.977C1561.38,469.848 1567.2,472.651 1573.38,476.941C1568.92,475.133 1562.75,473.169 1555.21,472.305C1549.04,471.599 1543.66,471.823 1539.45,472.305C1541.6,473.469 1544.09,475.033 1546.68,477.126C1549.7,479.57 1552.01,482.055 1553.72,484.173C1542.72,481.206 1531.72,478.239 1520.72,475.272C1524.49,477.129 1529.18,479.937 1533.88,484.173C1536.42,486.456 1538.5,488.742 1540.19,490.848C1529.74,487.943 1519.3,485.038 1508.85,482.133C1513.79,486.521 1518.74,490.91 1523.68,495.298C1515.41,492.829 1507.14,490.36 1498.86,487.89C1502.62,490.262 1506.99,493.555 1511.26,498.08C1513.11,500.04 1514.71,501.98 1516.08,503.828C1505.96,500.983 1495.84,498.137 1485.72,495.292C1492.25,500.733 1498.79,506.175 1505.33,511.616C1495.41,509.015 1485.5,506.414 1475.59,503.813C1483.18,508.331 1490.78,512.848 1498.37,517.365C1492.68,516.409 1486.98,515.453 1481.28,514.497C1484.51,516.504 1487.73,518.511 1490.96,520.517C1488.63,520.426 1486.3,520.336 1483.97,520.245C1486.58,521.338 1489.37,522.098 1492.58,522.064C1503.21,521.953 1512.74,523.947 1521.23,527.823C1537.85,535.412 1547.72,549.353 1551.58,555.562C1556.75,563.869 1559.37,571.648 1560.77,577.074C1558.48,572.379 1555.18,566.757 1550.39,561.034C1547.8,557.939 1545.19,555.317 1542.75,553.116C1543.37,558.119 1543.99,563.122 1544.66,568.429C1539.84,561.084 1535.22,554.023 1530.59,546.962C1531.07,553.754 1531.55,560.546 1532.03,567.338C1529.31,562.044 1525.48,555.833 1520.11,549.523C1517.35,546.285 1514.58,543.493 1511.96,541.103C1513.49,545.067 1515.02,550.025 1515.99,555.842C1516.7,560.13 1516.97,564.04 1517.01,567.431C1515.74,563.955 1513.21,558.424 1508.2,553.06C1504.37,548.963 1500.42,546.38 1497.54,544.809C1498.85,547.453 1500.23,550.68 1501.37,554.451C1502.56,558.37 1503.22,561.943 1503.6,564.959C1500.68,561.027 1496.97,556.605 1492.35,552.102C1487.47,547.353 1482.7,543.621 1478.5,540.729C1480.92,542.551 1486.1,547.01 1488.51,554.575C1489.52,557.72 1489.78,560.571 1489.78,562.778C1483.18,556.459 1476.57,550.139 1469.97,543.82C1473.5,547.378 1477.2,551.556 1480.81,556.43C1498.11,579.784 1515.62,620.307 1499.35,647.424C1497.61,650.323 1494.55,654.645 1489.19,659.034C1490.62,655.428 1492.01,651.339 1493.18,646.796C1495,639.75 1495.87,633.324 1496.24,627.864C1493.4,631.331 1490.55,634.798 1487.71,638.266C1488.38,635.2 1488.98,631.919 1489.47,628.438C1490.28,622.709 1490.64,617.378 1490.74,612.55C1489.58,619.257 1487.88,624.968 1483.39,629.552C1483.91,623.93 1484.86,618.487 1484.76,613.064C1484.67,607.61 1483.52,602.176 1482.72,595.839C1479.71,600.984 1477.34,605.047 1474.97,609.109C1475.71,596.152 1475.07,586.88 1472.23,579.981C1471.07,583.283 1469.97,586.385 1468.79,589.752C1467.93,581.34 1467.12,573.396 1466.3,565.452C1465.98,565.476 1465.65,565.5 1465.32,565.523C1464.33,569.758 1463.34,573.993 1462.36,578.228C1460.77,570.636 1459.88,563.157 1455.95,555.83C1455.41,558.642 1454.98,560.826 1454.56,563.01C1454.36,563.032 1454.16,563.054 1453.95,563.077C1453.35,561.053 1452.75,559.031 1452.15,557.008C1454.62,599.495 1454.99,641.837 1453.23,684.025C1453.68,684.212 1454.13,684.399 1454.57,684.586C1453.93,688.896 1453.26,693.231 1452.59,697.563C1452.31,702.939 1452,708.312 1451.64,713.683C1451.9,713.791 1452.16,713.899 1452.42,714.008C1451.94,717.202 1451.44,720.42 1450.95,723.626C1450.36,731.677 1449.69,739.722 1448.94,747.762C1449.21,747.896 1449.49,748.031 1449.76,748.165C1449.25,750.543 1448.72,752.939 1448.21,755.324C1447.24,765.068 1446.16,774.803 1444.96,784.53C1445.53,784.811 1446.1,785.093 1446.67,785.374C1445.39,791.349 1444.09,797.345 1442.77,803.361C1442.51,804.548 1442.25,805.726 1441.99,806.91C1441.28,811.881 1440.54,816.849 1439.77,821.816C1440.79,822.319 1441.82,822.823 1442.84,823.326C1441.56,829.301 1440.26,835.297 1438.94,841.313C1438.45,843.558 1437.96,845.794 1437.46,848.028C1441.57,839.497 1446.91,831.56 1453.3,824.572C1452.11,826.729 1451.04,828.964 1449.85,831.121C1447.34,835.669 1444.8,840.285 1443.56,845.333C1447.83,838.321 1455.84,834.976 1462.58,830.298C1464.86,828.716 1467.03,826.983 1469.2,825.25C1472.08,822.941 1474.97,820.633 1477.86,818.324C1475.59,826.036 1470.7,833.145 1464.13,837.771C1462.88,838.644 1461.59,839.438 1460.3,840.231C1458.6,841.271 1456.9,842.311 1455.2,843.351C1457.57,842.831 1459.8,842.205 1462.07,841.374C1474.26,836.917 1487.62,837.424 1500.58,837.989C1502.8,838.085 1504.5,840.093 1506.18,841.545C1508.79,843.796 1511.79,845.591 1515.01,846.834C1514.72,846.829 1514.43,846.823 1514.14,846.819C1512.22,846.58 1509.95,846.148 1507.46,845.355C1504.46,844.397 1502,843.191 1500.14,842.11C1496.77,841.784 1492.97,841.681 1488.83,842.018C1479.39,842.784 1471.52,845.559 1465.56,848.459C1462.98,849.47 1460.49,850.774 1458.08,852.405C1465.4,854.024 1472.95,854.084 1480.44,854.348C1511.18,855.431 1541.79,860.076 1571.46,868.161C1579.49,870.348 1587.48,872.792 1595.71,873.986C1579.74,864.919 1562.87,856.392 1545.22,851.397C1618.84,805.382 1667.82,723.625 1667.82,630.41Z" style="fill:rgb(51,49,50);fill-rule:nonzero;"/>
    </g>
    <g transform="matrix(4.166667,0,0,4.166667,-4664.077972,-674.480164)">
        <path d="M1443.68,555.625C1442.29,560.982 1440.9,566.34 1439.52,571.697C1438.13,565.281 1436.96,559.836 1435.78,554.39C1434.82,562.191 1433.87,569.991 1432.91,577.792L1432.44,577.913C1430.06,570.808 1427.69,563.704 1425.31,556.599L1425.31,583.254C1422.52,576.932 1419.73,570.61 1416.94,564.289C1413.73,574.019 1413.39,583.67 1413.53,593.677C1411.26,587.174 1409,580.671 1406.74,574.168C1405.6,583.79 1404.47,593.412 1403.34,603.034C1401.57,595.434 1399.8,587.834 1398.03,580.234C1397.24,589.986 1396.45,599.738 1395.57,610.611C1393.14,605.239 1390.7,599.866 1388.27,594.493C1387.99,602.653 1387.71,610.812 1387.43,618.972C1385.51,614.844 1383.59,610.717 1381.66,606.589C1381.26,610.623 1380.86,614.657 1380.46,618.594C1393.76,622.484 1404.69,628.976 1413.42,639.477C1405.26,637.314 1397.45,635.242 1389.63,633.171C1392.74,637.238 1395.84,641.305 1398.94,645.372C1389.52,638.617 1381.09,635.956 1371.95,635.767C1378.64,638.426 1383.48,642.259 1386.85,649.186C1376.13,642.943 1365.56,640.131 1354.08,641.33C1357.09,645.35 1360.1,649.37 1363.11,653.389C1354.04,649.262 1344.65,647.101 1334.17,648.157C1337.35,650.584 1340.08,652.669 1342.81,654.754C1334.35,653.656 1326.17,652.596 1318,651.535C1317.98,651.849 1317.96,652.163 1317.94,652.478C1321.99,654.84 1326.05,657.203 1330.1,659.565C1329.97,659.829 1329.83,660.094 1329.7,660.358C1326.52,659.886 1323.34,659.414 1319.53,658.848C1320.27,659.519 1320.42,659.746 1320.63,659.819C1321.43,660.109 1322.26,660.345 1323.08,660.611C1334.29,664.255 1344.38,669.822 1352.62,678.362C1370.11,696.48 1374.81,719.207 1375.61,743.303C1372.68,733.853 1369.75,724.403 1366.81,714.954C1365.43,720.296 1364.05,725.639 1362.67,730.981C1361.2,722.142 1359.73,713.303 1358.26,704.464C1357.11,709.912 1355.96,715.361 1354.81,720.809C1353.82,716.23 1352.55,711.27 1350.89,706.022C1349.18,700.609 1347.31,695.679 1345.42,691.255C1345.72,693.242 1345.92,695.59 1345.86,698.222C1345.78,701.829 1345.23,704.929 1344.62,707.37C1342.76,704.121 1340.89,700.576 1339.06,696.739C1337.27,692.985 1335.72,689.375 1334.39,685.957C1334.54,689.056 1334.7,692.156 1334.85,695.255C1331.6,692.206 1328.34,689.156 1325.09,686.107C1331.1,693.607 1337.12,701.106 1343.14,708.606C1344.1,709.623 1344.84,710.458 1345.28,710.954C1347.16,713.109 1349.24,715.88 1356.58,726.515C1356.64,726.603 1356.7,726.692 1356.76,726.78C1357.08,726.79 1357.4,726.799 1357.72,726.809L1360.14,731.762C1364.05,737.628 1367.8,743.572 1371.36,749.596C1371.72,749.545 1372.1,749.577 1372.47,749.71C1373.09,751.372 1373.71,753.034 1374.34,754.696C1377.63,760.471 1380.77,766.318 1383.75,772.24L1384.43,772.24C1385,773.869 1385.58,775.499 1386.16,777.128C1390.1,785.263 1393.73,793.537 1397.04,801.954C1397.47,801.97 1397.9,801.986 1398.33,802.002L1399.8,809.186C1401.37,813.446 1402.85,817.743 1404.26,822.076C1404.85,822.091 1405.44,822.106 1406.03,822.121C1406.29,824.849 1406.56,827.577 1406.83,830.306C1407.99,834.209 1409.09,838.141 1410.13,842.103C1410.8,842.118 1411.47,842.132 1412.15,842.147C1412.42,845.096 1412.68,848.045 1412.95,850.994C1414.08,846.121 1415.16,841.246 1416.23,836.369C1416.59,832.399 1416.8,828.595 1416.88,824.995C1417.48,824.956 1418.08,824.917 1418.68,824.878C1420.51,816.123 1422.23,807.362 1423.85,798.595C1424.09,795.494 1424.23,792.503 1424.29,789.639C1424.69,789.613 1425.09,789.588 1425.49,789.561C1426.64,783.106 1427.74,776.646 1428.78,770.182C1428.93,767.779 1429.04,765.439 1429.08,763.185C1429.35,763.167 1429.62,763.15 1429.89,763.133C1431.29,754.084 1432.59,745.029 1433.78,735.965C1433.82,734.928 1433.85,733.904 1433.87,732.898C1433.98,732.891 1434.08,732.884 1434.19,732.877C1441.76,674.169 1444.93,615.125 1443.68,555.625Z" style="fill:rgb(51,49,50);fill-rule:nonzero;"/>
    </g>
</svg>
