<?xml version="1.0" encoding="UTF-8"?>
<svg id="Layer_1" data-name="Layer 1" xmlns="http://www.w3.org/2000/svg" viewBox="0 0 615.33333 164.02244">
  <defs>
    <style>
      .cls-1 {
        fill: #fff;
      }

      .cls-2 {
        fill: #1a1a1a;
      }
    </style>
  </defs>
  <g>
    <g>
      <path d="M90.08896,78.16395c-1.91699,3.62109-3.97559,6.67383-11.00488,6.67383-7.02832,0-7.80957-3.05273-8.16406-6.67383l-2.62695-23.99707c-.07129-.92383-.14258-1.77539-.49707-1.77539-.63965,0-.92285,1.13574-.99414,1.63281l-5.96387,30.24609h-16.18848l8.875-41.53516c1.84668-8.73242,10.93457-8.73242,13.49023-8.73242,4.25977,0,10.5791.42578,11.43066,8.23633l2.62695,24.13965c.07129.85156.21289,2.27148.99414,2.27148s1.63281-1.56152,1.98828-2.27148l12.56641-24.13965c4.11816-7.88184,10.79199-8.23633,14.98047-8.23633,9.30176,0,11.14746,3.5498,11.14746,6.60254,0,.63965-.07129,1.41992-.21289,2.12988l-8.875,41.53516h-16.1875l7.02832-30.24609c.07129-.28418.14258-.63867.14258-.92285,0-.35449-.14258-.70996-.42676-.70996-.2832,0-.70996.42578-1.41992,1.77539l-12.70898,23.99707Z"/>
      <path d="M142.84189,40.03798c2.62695-4.25977,4.96973-6.03516,12.6377-6.03516,5.39648,0,9.65625.42578,10.79199,6.03516l9.0166,44.23242h-15.90332l-1.91699-10.22363h-17.60742l-6.03516,10.22363h-17.96289l26.97949-44.23242ZM145.75302,62.68641h10.15234l-1.91602-12.56641c-.07129-.35547-.21387-1.06543-.42676-1.06543s-.63867.63867-.85156,1.06543l-6.95801,12.56641Z"/>
      <path d="M208.94248,46.9247c-7.81055,0-11.21777,1.8457-13.27734,11.78613-.49707,2.34277-.78125,4.96973-.78125,6.53125,0,5.18359,2.76953,6.67383,8.7334,6.67383h3.4082c2.12988,0,3.33691-.99316,3.83398-3.12402l2.27148-10.79102h16.0459l-3.90527,18.45898c-1.06445,4.9707-4.54395,7.81055-9.51367,7.81055h-18.74316c-13.06445,0-18.74414-6.31934-18.74414-17.53711,0-2.83984.28418-6.03516.92285-9.44238,3.19531-17.11133,9.23047-22.71973,26.97949-22.71973h26.83789l-2.62695,12.35352h-21.44141Z"/>
      <path d="M285.2667,75.96278c-.42578,1.84668-1.77441,8.875-11.92773,8.875-3.7627,0-7.59668-.42578-9.79785-4.89844l-12.56641-25.34668c-.21387-.49707-.56836-1.20703-1.06543-1.20703-.21289,0-.99414,0-1.27832,1.41992l-6.31836,29.46484h-13.06445l8.80469-41.46387c1.41992-6.53223,6.60254-8.80371,12.35352-8.80371,2.62695,0,7.3125.21289,9.51367,4.61523l12.6377,25.55957c.28418.49707.56836,1.20703,1.13672,1.20703.78027,0,.92285-.78125.99316-1.20703l6.31934-29.60645h13.06348l-8.80371,41.3916Z"/>
      <path d="M328.36435,63.1122l6.10547-28.54102h16.0459l-6.38965,29.81934c-3.62109,17.04004-11.92871,20.44727-27.54785,20.44727-13.63184,0-22.29395-4.75684-22.29395-15.33496,0-1.5625.28418-3.90527.56836-5.1123l6.38965-29.81934h16.0459l-6.10645,28.54102c-.21289,1.13574-.35449,2.20117-.35449,3.12402,0,4.11816,2.48438,5.67969,7.09961,5.67969,5.67969,0,9.08789-2.41309,10.4375-8.80371Z"/>
      <path d="M392.40439,78.16395c-1.91699,3.62109-3.97559,6.67383-11.00488,6.67383-7.02832,0-7.80957-3.05273-8.16406-6.67383l-2.62695-23.99707c-.07129-.92383-.14258-1.77539-.49707-1.77539-.63965,0-.92285,1.13574-.99414,1.63281l-5.96387,30.24609h-16.18848l8.875-41.53516c1.84668-8.73242,10.93457-8.73242,13.49023-8.73242,4.25977,0,10.5791.42578,11.43066,8.23633l2.62695,24.13965c.07129.85156.21289,2.27148.99414,2.27148s1.63281-1.56152,1.98828-2.27148l12.56641-24.13965c4.11816-7.88184,10.79199-8.23633,14.98047-8.23633,9.30176,0,11.14746,3.5498,11.14746,6.60254,0,.63965-.07129,1.41992-.21289,2.12988l-8.875,41.53516h-16.1875l7.02832-30.24609c.07129-.28418.14258-.63867.14258-.92285,0-.35449-.14258-.70996-.42676-.70996-.2832,0-.70996.42578-1.41992,1.77539l-12.70898,23.99707Z"/>
      <path d="M492.51279,67.72743c0,1.27832-.07031,2.55566-.35449,4.04688-1.77539,9.30078-5.3252,12.49609-16.68457,12.49609h-28.04492c-4.18945,0-6.31934-2.55664-6.31934-5.89355,0-.63867.07129-1.27734.21289-1.91699l7.24219-34.0791c1.06543-4.96973,3.7627-7.80957,9.44336-7.80957h25.91406c8.30664,0,11.71484,3.7627,11.71484,10.8623,0,1.34961-.1416,2.69824-.49707,4.47266-.99414,4.9707-2.76855,7.59766-9.30078,8.80469l-.07129.2832c4.68652.99414,6.74512,4.33105,6.74512,8.7334ZM459.00107,68.65028c-.1416.63867-.21289,1.20703-.21289,1.63281,0,1.49121.78125,1.91699,2.98242,1.91699h9.0166c2.83984,0,4.89941-.56738,5.53809-3.4082.1416-.56738.1416-1.20605.1416-1.49023,0-2.05957-1.56152-2.69824-4.04688-2.69824h-12.56641l-.85254,4.04688ZM462.19638,53.66981h11.92773c2.83984,0,4.61523-.21289,5.1123-3.12402.07031-.56836.1416-1.20703.1416-1.5625,0-1.91699-1.41992-2.34277-3.83398-2.34277h-9.0166c-2.12988,0-2.98242.70996-3.47949,2.83984l-.85156,4.18945Z"/>
      <path d="M496.63095,84.2704l2.69824-12.78027h14.05762l-2.69824,12.78027h-14.05762Z"/>
      <path d="M532.34189,84.2704l10.5791-49.69922h16.0459l-10.5791,49.69922h-16.0459Z"/>
      <path d="M553.21592,84.2704l2.69824-12.78027h14.05762l-2.69824,12.78027h-14.05762Z"/>
    </g>
    <g>
      <path class="cls-2" d="M90.08896,78.16395c-1.91699,3.62109-3.97559,6.67383-11.00488,6.67383-7.02832,0-7.80957-3.05273-8.16406-6.67383l-2.62695-23.99707c-.07129-.92383-.14258-1.77539-.49707-1.77539-.63965,0-.92285,1.13574-.99414,1.63281l-5.96387,30.24609h-16.18848l8.875-41.53516c1.84668-8.73242,10.93457-8.73242,13.49023-8.73242,4.25977,0,10.5791.42578,11.43066,8.23633l2.62695,24.13965c.07129.85156.21289,2.27148.99414,2.27148s1.63281-1.56152,1.98828-2.27148l12.56641-24.13965c4.11816-7.88184,10.79199-8.23633,14.98047-8.23633,9.30176,0,11.14746,3.5498,11.14746,6.60254,0,.63965-.07129,1.41992-.21289,2.12988l-8.875,41.53516h-16.1875l7.02832-30.24609c.07129-.28418.14258-.63867.14258-.92285,0-.35449-.14258-.70996-.42676-.70996-.2832,0-.70996.42578-1.41992,1.77539l-12.70898,23.99707Z"/>
      <path class="cls-2" d="M142.84189,40.03798c2.62695-4.25977,4.96973-6.03516,12.6377-6.03516,5.39648,0,9.65625.42578,10.79199,6.03516l9.0166,44.23242h-15.90332l-1.91699-10.22363h-17.60742l-6.03516,10.22363h-17.96289l26.97949-44.23242ZM145.75302,62.68641h10.15234l-1.91602-12.56641c-.07129-.35547-.21387-1.06543-.42676-1.06543s-.63867.63867-.85156,1.06543l-6.95801,12.56641Z"/>
      <path class="cls-2" d="M208.94248,46.9247c-7.81055,0-11.21777,1.8457-13.27734,11.78613-.49707,2.34277-.78125,4.96973-.78125,6.53125,0,5.18359,2.76953,6.67383,8.7334,6.67383h3.4082c2.12988,0,3.33691-.99316,3.83398-3.12402l2.27148-10.79102h16.0459l-3.90527,18.45898c-1.06445,4.9707-4.54395,7.81055-9.51367,7.81055h-18.74316c-13.06445,0-18.74414-6.31934-18.74414-17.53711,0-2.83984.28418-6.03516.92285-9.44238,3.19531-17.11133,9.23047-22.71973,26.97949-22.71973h26.83789l-2.62695,12.35352h-21.44141Z"/>
      <path class="cls-2" d="M285.2667,75.96278c-.42578,1.84668-1.77441,8.875-11.92773,8.875-3.7627,0-7.59668-.42578-9.79785-4.89844l-12.56641-25.34668c-.21387-.49707-.56836-1.20703-1.06543-1.20703-.21289,0-.99414,0-1.27832,1.41992l-6.31836,29.46484h-13.06445l8.80469-41.46387c1.41992-6.53223,6.60254-8.80371,12.35352-8.80371,2.62695,0,7.3125.21289,9.51367,4.61523l12.6377,25.55957c.28418.49707.56836,1.20703,1.13672,1.20703.78027,0,.92285-.78125.99316-1.20703l6.31934-29.60645h13.06348l-8.80371,41.3916Z"/>
      <path class="cls-2" d="M328.36435,63.1122l6.10547-28.54102h16.0459l-6.38965,29.81934c-3.62109,17.04004-11.92871,20.44727-27.54785,20.44727-13.63184,0-22.29395-4.75684-22.29395-15.33496,0-1.5625.28418-3.90527.56836-5.1123l6.38965-29.81934h16.0459l-6.10645,28.54102c-.21289,1.13574-.35449,2.20117-.35449,3.12402,0,4.11816,2.48438,5.67969,7.09961,5.67969,5.67969,0,9.08789-2.41309,10.4375-8.80371Z"/>
      <path class="cls-2" d="M392.40439,78.16395c-1.91699,3.62109-3.97559,6.67383-11.00488,6.67383-7.02832,0-7.80957-3.05273-8.16406-6.67383l-2.62695-23.99707c-.07129-.92383-.14258-1.77539-.49707-1.77539-.63965,0-.92285,1.13574-.99414,1.63281l-5.96387,30.24609h-16.18848l8.875-41.53516c1.84668-8.73242,10.93457-8.73242,13.49023-8.73242,4.25977,0,10.5791.42578,11.43066,8.23633l2.62695,24.13965c.07129.85156.21289,2.27148.99414,2.27148s1.63281-1.56152,1.98828-2.27148l12.56641-24.13965c4.11816-7.88184,10.79199-8.23633,14.98047-8.23633,9.30176,0,11.14746,3.5498,11.14746,6.60254,0,.63965-.07129,1.41992-.21289,2.12988l-8.875,41.53516h-16.1875l7.02832-30.24609c.07129-.28418.14258-.63867.14258-.92285,0-.35449-.14258-.70996-.42676-.70996-.2832,0-.70996.42578-1.41992,1.77539l-12.70898,23.99707Z"/>
      <path class="cls-2" d="M492.51279,67.72743c0,1.27832-.07031,2.55566-.35449,4.04688-1.77539,9.30078-5.3252,12.49609-16.68457,12.49609h-28.04492c-4.18945,0-6.31934-2.55664-6.31934-5.89355,0-.63867.07129-1.27734.21289-1.91699l7.24219-34.0791c1.06543-4.96973,3.7627-7.80957,9.44336-7.80957h25.91406c8.30664,0,11.71484,3.7627,11.71484,10.8623,0,1.34961-.1416,2.69824-.49707,4.47266-.99414,4.9707-2.76855,7.59766-9.30078,8.80469l-.07129.2832c4.68652.99414,6.74512,4.33105,6.74512,8.7334ZM459.00107,68.65028c-.1416.63867-.21289,1.20703-.21289,1.63281,0,1.49121.78125,1.91699,2.98242,1.91699h9.0166c2.83984,0,4.89941-.56738,5.53809-3.4082.1416-.56738.1416-1.20605.1416-1.49023,0-2.05957-1.56152-2.69824-4.04688-2.69824h-12.56641l-.85254,4.04688ZM462.19638,53.66981h11.92773c2.83984,0,4.61523-.21289,5.1123-3.12402.07031-.56836.1416-1.20703.1416-1.5625,0-1.91699-1.41992-2.34277-3.83398-2.34277h-9.0166c-2.12988,0-2.98242.70996-3.47949,2.83984l-.85156,4.18945Z"/>
      <path class="cls-2" d="M496.63095,84.2704l2.69824-12.78027h14.05762l-2.69824,12.78027h-14.05762Z"/>
      <path class="cls-2" d="M532.34189,84.2704l10.5791-49.69922h16.0459l-10.5791,49.69922h-16.0459Z"/>
      <path class="cls-2" d="M553.21592,84.2704l2.69824-12.78027h14.05762l-2.69824,12.78027h-14.05762Z"/>
    </g>
    <g>
      <path class="cls-1" d="M79.08408,83.21278c-6.03711,0-6.26172-2.29785-6.54688-5.20703l-2.62891-24.01562c-.12793-1.68066-.47266-3.22363-2.1123-3.22363-1.32227,0-2.31641,1.13965-2.59473,2.97461l-5.69922,28.9043h-12.84375l8.45508-39.57031c1.05957-5.01074,4.95312-7.44727,11.90137-7.44727,5.44727,0,9.20117,1.1543,9.81543,6.78711l2.62695,24.13965c.20801,2.50684,1.06152,3.7207,2.60938,3.7207,1.66211,0,2.75977-1.80859,3.44141-3.16895l12.55469-24.11621c3.38086-6.4707,8.50488-7.3623,13.53906-7.3623,9.52246,0,9.52246,3.74609,9.52246,4.97754,0,.5625-.06738,1.23926-.18066,1.81152l-8.59668,40.22852h-12.82715l6.56543-28.25293c.12305-.49023.18457-.92285.18457-1.29102,0-1.33105-.88184-2.33496-2.05176-2.33496-1.35352,0-2.18555,1.36523-2.8584,2.64453l-12.70703,23.99219c-1.85742,3.50879-3.52637,5.80957-9.56836,5.80957ZM67.79599,50.01649c2.56055,0,2.77734,2.83594,2.85938,3.9043l2.62793,24.00684c.28613,2.92578.44336,4.53516,5.80078,4.53516,5.75,0,7.13086-2.05566,8.90625-5.41113l12.70605-23.99121c.77441-1.47168,1.75-3.04395,3.52148-3.04395,1.59766,0,2.80176,1.32617,2.80176,3.08496,0,.42969-.06934.92383-.20605,1.4668l-6.35059,27.32715h11.27637l8.46875-39.62988c.10352-.52148.16602-1.14355.16602-1.66016,0-1.0459,0-4.22754-8.77246-4.22754-4.79785,0-9.67871.84277-12.87402,6.95898l-12.55176,24.11035c-.76758,1.5332-2.03223,3.57812-4.10938,3.57812-1.98438,0-3.11426-1.47949-3.35645-4.39844l-2.62598-24.12988c-.55762-5.11816-3.74805-6.11914-9.06934-6.11914-6.53906,0-10.19238,2.24121-11.16699,6.85254l-8.26172,38.66504h11.29883l5.57715-28.2832c.33594-2.21191,1.61426-3.5957,3.33398-3.5957Z"/>
      <path class="cls-1" d="M173.29795,82.6454h-12.56445l-1.66797-8.89746c-.14453-.76855-.81641-1.32617-1.59766-1.32617h-17.60742c-.57227,0-1.1084.30664-1.39941.79883l-5.56348,9.4248h-14.14062l25.47168-41.76172c2.25488-3.65527,4-5.25586,11.25098-5.25586,5.81152,0,8.37402.65723,9.19922,4.73242l8.61914,42.28516ZM161.35654,81.8954h11.02344l-8.43555-41.38574c-.71582-3.53516-2.74121-4.13184-8.46484-4.13184-6.93555,0-8.41895,1.34277-10.61133,4.89844l-24.77539,40.61914h12.37695l5.34473-9.05566c.42676-.7207,1.20996-1.16797,2.0459-1.16797h17.60742c1.1416,0,2.12305.81445,2.33398,1.9375l1.55469,8.28613ZM155.90537,65.06141h-10.15234c-.83691,0-1.62109-.44824-2.0459-1.16895-.42578-.7207-.4375-1.62402-.03223-2.35645l6.91797-12.49023c1.17969-2.36621,2.52734-2.36621,2.96973-2.36621,2.16406,0,2.60547,2.22754,2.77246,3.06543l1.91895,12.58301c.10449.68652-.0957,1.38086-.54785,1.90723-.45215.52441-1.1084.82617-1.80078.82617ZM153.5626,47.42958c-.32812,0-1.3252,0-2.30566,1.96484l-6.92578,12.50488c-.27734.50098-.26855,1.11914.02246,1.6123.29004.49316.82617.7998,1.39941.7998h10.15234c.47363,0,.92285-.20605,1.23242-.56543v-.00098c.30957-.35938.44629-.83398.37402-1.30371l-1.91602-12.56641c-.23828-1.20117-.66895-2.44531-2.0332-2.44531Z"/>
      <path class="cls-1" d="M215.75791,82.6454h-18.74316c-11.67969,0-17.11914-5.05664-17.11914-15.91211,0-2.89941.30078-5.97559.89551-9.14355,3.13574-16.79492,8.5918-21.39355,25.38184-21.39355h24.83105l-1.93555,9.10352h-20.12598c-8.06445,0-12.57812,2.02344-14.86816,13.08203-.48828,2.29492-.81543,5.05176-.81543,6.86035,0,7.3125,5.23633,8.29883,10.3584,8.29883h3.4082c2.875,0,4.74805-1.51465,5.41602-4.37988l2.00781-9.53516h12.72266l-3.49023,16.49707c-.90039,4.20605-3.71387,6.52246-7.92383,6.52246ZM206.17295,36.94618c-16.30078,0-21.59863,4.4668-24.64551,20.78125v.00098c-.58496,3.12207-.88184,6.15137-.88184,9.00488,0,10.34473,5.20117,15.16211,16.36914,15.16211h18.74316c3.81836,0,6.37207-2.10547,7.18945-5.92773l3.29883-15.5918h-11.1875l-1.88477,8.94727c-.75781,3.25293-2.88379,4.96777-6.14844,4.96777h-3.4082c-4.76855,0-11.1084-.93848-11.1084-9.04883,0-1.85645.33398-4.6748.83105-7.01465,2.39551-11.5625,7.13379-13.67773,15.60254-13.67773h19.51855l1.61719-7.60352h-23.90527Z"/>
      <path class="cls-1" d="M273.33896,83.21278c-4.03809,0-6.69629-.65332-8.33984-3.99023l-12.5459-25.30664c-.63086-1.43555-1.48438-2.15527-2.54395-2.15527-1.45703,0-2.53027,1.01855-2.87109,2.72559l-6.03906,28.15918h-9.74414l8.38672-39.50195c1.08496-4.9873,4.70605-7.51562,10.76465-7.51562,3.06641,0,6.42285.44141,8.05957,3.7168l12.63477,25.55371c.02246.04395.14941.27539.14941.27539.32324.59863.98926,1.83594,2.44434,1.83594.65332,0,2.21387-.25,2.59668-2.56738l.00293-.0166,6.02734-28.22949h9.74219l-.0957.45312-8.31641,39.08984c-.46582,2.04785-1.69922,7.47363-10.3125,7.47363ZM249.90927,51.01063c1.38477,0,2.46973.87012,3.22363,2.58789l12.53906,25.29102c1.48633,3.02051,3.74805,3.57324,7.66699,3.57324,8.01465,0,9.15137-5.00098,9.5791-6.88477l8.21973-38.63184h-8.20898l-5.89941,27.62793c-.3916,2.34863-1.97852,3.18555-3.33496,3.18555-1.90234,0-2.77441-1.61719-3.10254-2.22656h0s-.14551-.2666-.16406-.30469l-12.63281-25.5498c-1.4541-2.9082-4.55078-3.30078-7.38867-3.30078-5.65723,0-9.03223,2.3291-10.03125,6.92383l-8.19434,38.59375h8.21289l5.91016-27.56152c.41504-2.0791,1.76367-3.32324,3.60547-3.32324Z"/>
      <path class="cls-1" d="M316.57822,83.21278c-13.71484,0-20.66895-4.6123-20.66895-13.70996,0-1.43164.27734-3.68359.52441-4.74023l6.12305-28.56641h12.72168l-5.68555,26.57617c-.26562,1.41406-.39062,2.51758-.39062,3.46387,0,3.33203,1.51367,7.30469,8.72461,7.30469,6.65918,0,10.59375-3.30176,12.02734-10.09277v-.00098l5.8291-27.25098h12.72266l-5.96973,27.85352c-3.46191,16.2959-11.12891,19.16309-25.95801,19.16309ZM303.1622,36.94618l-5.99707,27.98047c-.23926,1.02441-.50586,3.19336-.50586,4.57617,0,8.59961,6.70215,12.95996,19.91895,12.95996,14.41797,0,21.87012-2.77832,25.22461-18.56934l5.77539-26.94727h-11.1875l-5.70215,26.65723c-1.51953,7.19141-5.69336,10.6875-12.76172,10.6875-7.83105,0-9.47461-4.37988-9.47461-8.05469,0-.99414.12891-2.1416.40527-3.61133l5.49316-25.67871h-11.18848Z"/>
      <path class="cls-1" d="M381.39951,83.21278c-6.03711,0-6.26172-2.29785-6.54688-5.20703l-2.62891-24.01562c-.12793-1.68066-.47266-3.22363-2.1123-3.22363-1.32227,0-2.31641,1.13965-2.59473,2.97461l-5.69922,28.9043h-12.84375l8.45508-39.57031c1.05957-5.01074,4.95312-7.44727,11.90137-7.44727,5.44727,0,9.20117,1.1543,9.81543,6.78711l2.62695,24.13965c.20801,2.50684,1.06152,3.7207,2.60938,3.7207,1.66211,0,2.75977-1.80859,3.44141-3.16895l12.55469-24.11621c3.38086-6.4707,8.50488-7.3623,13.53906-7.3623,9.52246,0,9.52246,3.74609,9.52246,4.97754,0,.5625-.06738,1.23926-.18066,1.81152l-8.59668,40.22852h-12.82715l6.56543-28.25293c.12305-.49023.18457-.92285.18457-1.29102,0-1.33105-.88184-2.33496-2.05176-2.33496-1.35352,0-2.18555,1.36523-2.8584,2.64453l-12.70703,23.99219c-1.85742,3.50879-3.52637,5.80957-9.56836,5.80957ZM370.11142,50.01649c2.56055,0,2.77734,2.83594,2.85938,3.9043l2.62793,24.00684c.28613,2.92578.44336,4.53516,5.80078,4.53516,5.75,0,7.13086-2.05566,8.90625-5.41113l12.70605-23.99121c.77441-1.47168,1.75-3.04395,3.52148-3.04395,1.59766,0,2.80176,1.32617,2.80176,3.08496,0,.42969-.06934.92383-.20605,1.4668l-6.35059,27.32715h11.27637l8.46875-39.62988c.10352-.52148.16602-1.14355.16602-1.66016,0-1.0459,0-4.22754-8.77246-4.22754-4.79785,0-9.67871.84277-12.87402,6.95898l-12.55176,24.11035c-.76758,1.5332-2.03223,3.57812-4.10938,3.57812-1.98438,0-3.11426-1.47949-3.35645-4.39844l-2.62598-24.12988c-.55762-5.11816-3.74805-6.11914-9.06934-6.11914-6.53906,0-10.19238,2.24121-11.16699,6.85254l-8.26172,38.66504h11.29883l5.57715-28.2832c.33594-2.21191,1.61426-3.5957,3.33398-3.5957Z"/>
      <path class="cls-1" d="M475.47373,82.6454h-28.04492c-2.9834,0-4.69434-1.55566-4.69434-4.26855,0-.5166.05859-1.04395.1748-1.56543l7.24414-34.09277c.98145-4.57227,3.33008-6.52246,7.85449-6.52246h25.91406c7.07227,0,10.08984,2.7627,10.08984,9.2373,0,1.28418-.13965,2.52637-.46484,4.15332-.86914,4.34277-2.23047,6.45996-8.00293,7.52637-.62305.11523-1.12598.58691-1.28125,1.20117l-.07129.2832c-.10645.4248-.03516.88379.19727,1.25684.23242.37207.6123.6377,1.04102.72852,3.67285.78027,5.45801,3.11719,5.45801,7.14453,0,1.4248-.09766,2.54395-.32617,3.74316-1.50391,7.88086-3.93359,11.1748-15.08789,11.1748ZM458.00791,36.94618c-4.20898,0-6.20508,1.66211-7.12109,5.92969l-7.24414,34.09473c-.10547.47168-.1582.94434-.1582,1.40625,0,2.9082,2.14453,3.51855,3.94434,3.51855h28.04492c10.55176,0,12.83789-2.6377,14.35156-10.56543.21875-1.15039.3125-2.22754.3125-3.60254,0-3.66895-1.54492-5.70605-4.86328-6.41016-.62695-.13281-1.18164-.52148-1.52246-1.06543-.33887-.54688-.44434-1.21582-.28711-1.83789l.07129-.2832c.22656-.89746.96094-1.58691,1.87109-1.75586,5.30371-.97949,6.55078-2.66797,7.40332-6.93457.31641-1.57715.45117-2.77539.45117-4.00684,0-6.10742-2.61816-8.4873-9.33984-8.4873h-25.91406ZM470.7872,74.57509h-9.0166c-3.55469,0-5.35742-1.44434-5.35742-4.29199,0-.61133.0918-1.34668.26465-2.12598l.85156-4.04297c.23047-1.09277,1.20801-1.88574,2.32422-1.88574h12.56641c5.7959,0,6.42188,3.54785,6.42188,5.07324,0,.36328,0,1.21191-.2002,2.01562-1.18555,5.25781-6.03027,5.25781-7.85449,5.25781ZM459.85361,62.97841c-.76367,0-1.43262.54297-1.58984,1.29004l-.85254,4.04688c-.16016.7207-.24805,1.41797-.24805,1.96777,0,3.1748,2.62988,3.54199,4.60742,3.54199h9.0166c1.81738,0,6.07227,0,7.12305-4.67676l.00293-.00879c.17871-.71484.17871-1.50195.17871-1.83789,0-1.97266-.98438-4.32324-5.67188-4.32324h-12.56641ZM474.12412,56.04481h-11.92773c-.71582,0-1.38672-.31738-1.83887-.87207-.45312-.55371-.63086-1.27441-.48828-1.97559l.86426-4.24609c.74512-3.2002,2.58594-4.68555,5.79395-4.68555h9.0166c5.13184,0,6.20898,2.56543,6.20898,4.71777,0,.40527-.0498.96875-.17285,1.94629l-.00195.0166c-.87109,5.09863-5.15332,5.09863-7.4541,5.09863ZM466.52744,45.01552c-2.87891,0-4.39258,1.22461-5.06152,4.0957l-.8623,4.23535c-.09668.47949.02441.97266.33398,1.35156.31055.37891.76855.59668,1.25879.59668h11.92773c2.36816,0,5.94629,0,6.71289-4.4668.11816-.93945.16602-1.47461.16602-1.84473,0-2.66992-1.78613-3.96777-5.45898-3.96777h-9.0166Z"/>
      <path class="cls-1" d="M509.37021,82.6454h-10.73535l2.0127-9.53027h10.73535l-2.0127,9.53027ZM499.56064,81.8954h9.20215l1.69434-8.03027h-9.20215l-1.69434,8.03027Z"/>
      <path class="cls-1" d="M547.07236,82.6454h-12.72266l.0957-.45312,9.79102-45.99609h12.72266l-.0957.45312-9.79102,45.99609ZM535.27549,81.8954h11.18945l9.56836-44.94922h-11.18945l-9.56836,44.94922Z"/>
      <path class="cls-1" d="M565.95517,82.6454h-10.73535l2.0127-9.53027h10.73535l-2.0127,9.53027ZM556.1456,81.8954h9.20215l1.69434-8.03027h-9.20215l-1.69434,8.03027Z"/>
    </g>
  </g>
  <g>
    <path d="M134.67295,117.29774c2.11914.89941,3.17969,2.56934,3.17969,5.00977,0,1.83984-.61035,3.25977-1.83008,4.25977-1.2207,1-2.81055,1.5-4.76953,1.5h-7.4707c-.19922,0-.2998-.09961-.2998-.2998v-20.40039c0-.19922.10059-.2998.2998-.2998h7.23047c2.08008,0,3.69434.47559,4.84473,1.4248,1.14941.9502,1.72559,2.33594,1.72559,4.15527,0,2.16016-.9707,3.65039-2.91016,4.46973-.10059.06055-.10059.12012,0,.18066ZM126.3624,109.67762v6.33008c0,.08008.04004.11914.12012.11914h4.53027c1.16016,0,2.07422-.28906,2.74414-.86914s1.00586-1.37012,1.00586-2.37012c0-1.02051-.33594-1.83008-1.00586-2.43066-.66992-.59961-1.58398-.89941-2.74414-.89941h-4.53027c-.08008,0-.12012.04004-.12012.12012ZM133.96787,124.60243c.66992-.62988,1.00488-1.48535,1.00488-2.56543s-.34082-1.93457-1.02051-2.56445-1.60938-.94531-2.78906-.94531h-4.68066c-.08008,0-.12012.04004-.12012.12012v6.78027c0,.08008.04004.12012.12012.12012h4.77051c1.13965,0,2.04492-.31543,2.71484-.94531Z"/>
    <path d="M148.60654,127.45204c-1.10938-.56934-1.97461-1.37988-2.59375-2.42969-.62109-1.0498-.93066-2.25488-.93066-3.61523v-14.04004c0-.19922.09961-.2998.2998-.2998h2.28027c.2002,0,.2998.10059.2998.2998v14.10059c0,1.2998.41504,2.34961,1.24512,3.14941.8291.80078,1.91504,1.2002,3.25488,1.2002s2.41992-.39941,3.24023-1.2002c.82031-.7998,1.23047-1.84961,1.23047-3.14941v-14.10059c0-.19922.09961-.2998.29883-.2998h2.28125c.19922,0,.29883.10059.29883.2998v14.04004c0,1.36035-.30469,2.56543-.91406,3.61523-.61133,1.0498-1.4707,1.86035-2.58008,2.42969-1.11035.57031-2.39551.85547-3.85547.85547s-2.74512-.28516-3.85547-.85547Z"/>
    <path d="M167.6124,127.76747v-20.40039c0-.19922.09961-.2998.2998-.2998h2.28027c.19922,0,.2998.10059.2998.2998v20.40039c0,.2002-.10059.2998-.2998.2998h-2.28027c-.2002,0-.2998-.09961-.2998-.2998Z"/>
    <path d="M178.50205,127.76747v-20.40039c0-.19922.10059-.2998.2998-.2998h2.28027c.2002,0,.2998.10059.2998.2998v18.08984c0,.08008.04004.12012.12012.12012h10.35059c.19922,0,.29883.10059.29883.2998v1.89062c0,.2002-.09961.2998-.29883.2998h-13.05078c-.19922,0-.2998-.09961-.2998-.2998Z"/>
    <path d="M198.6915,127.76747v-20.40039c0-.19922.10059-.2998.2998-.2998h7.25977c2.08008,0,3.74023.54492,4.98047,1.63477,1.24023,1.09082,1.85938,2.5459,1.85938,4.36523v9c0,1.82031-.61914,3.27539-1.85938,4.36523s-2.90039,1.63477-4.98047,1.63477h-7.25977c-.19922,0-.2998-.09961-.2998-.2998ZM201.6915,125.57704h4.68066c1.15918,0,2.08398-.35449,2.77441-1.06445s1.04492-1.66504,1.06543-2.86523v-8.16016c0-1.2002-.3457-2.1543-1.03516-2.86523-.69043-.70898-1.625-1.06445-2.80469-1.06445h-4.68066c-.08008,0-.12012.04004-.12012.12012v15.7793c0,.08008.04004.12012.12012.12012Z"/>
    <path d="M220.32138,127.76747v-20.40039c0-.19922.10059-.2998.30078-.2998h2.2793c.2002,0,.30078.10059.30078.2998v20.40039c0,.2002-.10059.2998-.30078.2998h-2.2793c-.2002,0-.30078-.09961-.30078-.2998Z"/>
    <path d="M243.87217,107.06727h2.2793c.19922,0,.30078.10059.30078.2998v20.40039c0,.2002-.10156.2998-.30078.2998h-2.18945c-.14062,0-.26074-.07031-.36035-.20996l-9.38965-15.33008c-.02051-.05957-.05078-.08496-.08984-.0752-.04102.01074-.06055.04492-.06055.10547l.0293,15.20996c0,.2002-.09961.2998-.29883.2998h-2.28125c-.19922,0-.29883-.09961-.29883-.2998v-20.40039c0-.19922.09961-.2998.29883-.2998h2.2207c.13965,0,.25977.07031.35938.20996l9.36133,15.33008c.01953.05957.04883.08496.08984.0752.03906-.00977.05957-.04492.05957-.10547l-.03027-15.20996c0-.19922.09961-.2998.30078-.2998Z"/>
    <path d="M257.41513,127.45204c-1.10938-.56934-1.96875-1.37988-2.5791-2.42969s-.91504-2.25488-.91504-3.61523v-7.67969c0-1.37988.30469-2.58984.91504-3.62988s1.46973-1.8457,2.5791-2.41504c1.11133-.57031,2.38574-.85547,3.82617-.85547,1.43945,0,2.70898.28027,3.80957.83984,1.09961.56055,1.9541,1.33496,2.56543,2.3252.60938.99023.91406,2.10547.91406,3.34473v.33008c0,.2002-.09961.30078-.29883.30078h-2.28125c-.19922,0-.29883-.10059-.29883-.30078v-.26953c0-1.2002-.40625-2.1748-1.21582-2.9248s-1.875-1.125-3.19434-1.125c-1.34082,0-2.41602.38965-3.22559,1.16992s-1.21484,1.82031-1.21484,3.12012v7.85938c0,1.30078.41992,2.33984,1.25977,3.12012.84082.78027,1.94043,1.16992,3.2998,1.16992,1.32031,0,2.36523-.34473,3.13477-1.03516.77051-.68945,1.15625-1.63477,1.15625-2.83496v-2.30957c0-.08008-.04102-.12012-.12109-.12012h-4.04883c-.20117,0-.30078-.09961-.30078-.2998v-1.86035c0-.19922.09961-.2998.30078-.2998h6.75c.19922,0,.29883.10059.29883.2998v3.81055c0,2.2998-.6543,4.07031-1.96484,5.30957-1.31055,1.24023-3.08496,1.86035-5.32422,1.86035-1.44043,0-2.71484-.28516-3.82617-.85547Z"/>
    <path d="M285.06064,127.76747v-20.40039c0-.19922.10059-.2998.2998-.2998h2.28027c.2002,0,.2998.10059.2998.2998v20.40039c0,.2002-.09961.2998-.2998.2998h-2.28027c-.19922,0-.2998-.09961-.2998-.2998Z"/>
    <path d="M308.61045,107.06727h2.2793c.2002,0,.30078.10059.30078.2998v20.40039c0,.2002-.10059.2998-.30078.2998h-2.18945c-.14062,0-.25977-.07031-.35938-.20996l-9.39062-15.33008c-.01953-.05957-.05078-.08496-.08984-.0752-.04102.01074-.06055.04492-.06055.10547l.03027,15.20996c0,.2002-.10059.2998-.2998.2998h-2.28027c-.2002,0-.2998-.09961-.2998-.2998v-20.40039c0-.19922.09961-.2998.2998-.2998h2.21973c.14062,0,.25977.07031.36035.20996l9.36035,15.33008c.01953.05957.04883.08496.08984.0752.04004-.00977.06055-.04492.06055-.10547l-.03125-15.20996c0-.19922.10059-.2998.30078-.2998Z"/>
    <path d="M321.70517,127.5868c-1.12988-.47949-2-1.15918-2.61035-2.03906-.60938-.87988-.91406-1.91016-.91406-3.09082v-.87012c0-.19922.09961-.2998.29883-.2998h2.19043c.2002,0,.2998.10059.2998.2998v.7207c0,1.01953.43945,1.85938,1.32031,2.51953.87988.66016,2.08984.99023,3.62988.99023,1.37988,0,2.41992-.29004,3.12012-.87012.69922-.58008,1.0498-1.33984,1.0498-2.28027,0-.61914-.17969-1.14941-.54004-1.58984-.35938-.43945-.88477-.84473-1.57422-1.21484-.69043-.37012-1.69531-.81445-3.01562-1.33496-1.45996-.55957-2.61523-1.06934-3.46484-1.53027-.85059-.45996-1.55469-1.06445-2.11523-1.81445s-.83984-1.69531-.83984-2.83496c0-1.71973.61523-3.07031,1.8457-4.0498,1.22949-.98047,2.89453-1.4707,4.99414-1.4707,1.48047,0,2.7793.25098,3.90039.75,1.11914.5,1.98438,1.2002,2.59473,2.10059.61035.89941.91504,1.93945.91504,3.12012v.59961c0,.2002-.09961.2998-.2998.2998h-2.25c-.2002,0-.2998-.09961-.2998-.2998v-.4502c0-1.04004-.41602-1.90527-1.24609-2.59473-.83008-.69043-1.97461-1.03516-3.43359-1.03516-1.24121,0-2.20117.25488-2.88086.76465-.67969.51074-1.01953,1.24512-1.01953,2.20508,0,.66016.16992,1.2002.50977,1.62012s.84473.79492,1.51562,1.125c.66895.33008,1.69434.75488,3.07422,1.27539,1.41992.55957,2.57031,1.0752,3.4502,1.54492s1.60938,1.08984,2.19043,1.85938c.5791.77051.86914,1.72559.86914,2.86523,0,1.76074-.64453,3.15527-1.93457,4.18555s-3.06543,1.54492-5.3252,1.54492c-1.54004,0-2.875-.24023-4.00488-.7207Z"/>
    <path d="M351.40537,107.80262c.92969.50977,1.65039,1.22461,2.16016,2.14453s.76465,1.98047.76465,3.17969c0,1.2002-.26074,2.25-.78027,3.15039s-1.25488,1.60059-2.20508,2.09961c-.94922.50098-2.04492.75-3.28516.75h-5.2793c-.08008,0-.12012.04102-.12012.12012v8.52051c0,.2002-.10059.2998-.2998.2998h-2.28027c-.2002,0-.2998-.09961-.2998-.2998v-20.43066c0-.19922.09961-.2998.2998-.2998h8.10059c1.21875,0,2.29492.25488,3.22461.76562ZM350.44443,115.79774c.66992-.66016,1.00586-1.53027,1.00586-2.61035,0-1.09961-.33594-1.98438-1.00586-2.65527-.66992-.66992-1.55469-1.00488-2.6543-1.00488h-5.00977c-.08008,0-.12012.04004-.12012.12012v7.01953c0,.08008.04004.12012.12012.12012h5.00977c1.09961,0,1.98438-.33008,2.6543-.98926Z"/>
    <path d="M374.48935,109.55751h-10.65039c-.08008,0-.11914.04004-.11914.12012v6.44922c0,.08105.03906.12012.11914.12012h7.32031c.19922,0,.30078.10059.30078.30078v1.88965c0,.2002-.10156.2998-.30078.2998h-7.32031c-.08008,0-.11914.04004-.11914.12012v6.59961c0,.08008.03906.12012.11914.12012h10.65039c.19922,0,.30078.10059.30078.2998v1.89062c0,.2002-.10156.2998-.30078.2998h-13.34961c-.2002,0-.30078-.09961-.30078-.2998v-20.40039c0-.19922.10059-.2998.30078-.2998h13.34961c.19922,0,.30078.10059.30078.2998v1.89062c0,.2002-.10156.2998-.30078.2998Z"/>
    <path d="M384.79404,127.48231c-1.10938-.57031-1.96973-1.37988-2.58008-2.42969-.60938-1.05078-.91406-2.25488-.91406-3.61523v-7.77051c0-1.35938.30469-2.55469.91406-3.58496.61035-1.0293,1.4707-1.83008,2.58008-2.39941,1.11035-.57031,2.38477-.85547,3.8252-.85547s2.70996.27539,3.80957.8252c1.09961.55078,1.95508,1.3252,2.56543,2.3252s.91504,2.16016.91504,3.47949v.03027c0,.10059-.0293.17969-.08984.24023-.06055.05957-.13086.08984-.20996.08984l-2.28027.12012c-.2002,0-.2998-.08984-.2998-.27051v-.08984c0-1.2793-.40039-2.30957-1.2002-3.08984-.80078-.78027-1.87012-1.16992-3.20996-1.16992-1.34082,0-2.41504.38965-3.22559,1.16992-.80957.78027-1.21484,1.81055-1.21484,3.08984v7.98047c0,1.28027.40527,2.30957,1.21484,3.08984.81055.78027,1.88477,1.16992,3.22559,1.16992,1.33984,0,2.40918-.38965,3.20996-1.16992.7998-.78027,1.2002-1.80957,1.2002-3.08984v-.06055c0-.17969.09961-.26953.2998-.26953l2.28027.12012c.2002,0,.2998.09961.2998.2998,0,1.32031-.30469,2.48535-.91504,3.49512s-1.46582,1.79492-2.56543,2.35449c-1.09961.56055-2.36914.83984-3.80957.83984s-2.71484-.28418-3.8252-.85449Z"/>
    <path d="M416.5499,107.36708v1.91992c0,.2002-.09961.2998-.2998.2998h-5.76074c-.08008,0-.11914.04102-.11914.12012v18.06055c0,.2002-.10059.2998-.30078.2998h-2.2793c-.2002,0-.30078-.09961-.30078-.2998v-18.06055c0-.0791-.03906-.12012-.11914-.12012h-5.49023c-.2002,0-.2998-.09961-.2998-.2998v-1.91992c0-.19922.09961-.2998.2998-.2998h14.37012c.2002,0,.2998.10059.2998.2998Z"/>
    <path d="M423.21006,127.76747v-20.40039c0-.19922.09961-.2998.29883-.2998h2.28125c.19922,0,.29883.10059.29883.2998v20.40039c0,.2002-.09961.2998-.29883.2998h-2.28125c-.19922,0-.29883-.09961-.29883-.2998Z"/>
    <path d="M437.06943,127.43739c-1.12109-.60059-1.99023-1.44434-2.61035-2.53516-.62012-1.08984-.92969-2.34473-.92969-3.76465v-7.14062c0-1.41992.30957-2.66992.92969-3.75s1.48926-1.91992,2.61035-2.51953c1.11914-.60059,2.41016-.90039,3.86914-.90039,1.48047,0,2.78027.2998,3.90039.90039,1.12012.59961,1.99023,1.43945,2.61035,2.51953s.93066,2.33008.93066,3.75v7.14062c0,1.41992-.31055,2.6748-.93066,3.76465-.62012,1.09082-1.49023,1.93457-2.61035,2.53516-1.12012.59961-2.41992.89941-3.90039.89941-1.45898,0-2.75-.2998-3.86914-.89941ZM444.23935,124.5868c.83984-.83984,1.25977-1.94922,1.25977-3.3291v-7.29004c0-1.40039-.41992-2.52539-1.25977-3.375-.83984-.85059-1.94043-1.27539-3.30078-1.27539-1.35938,0-2.45508.4248-3.28418,1.27539-.83008.84961-1.24512,1.97461-1.24512,3.375v7.29004c0,1.37988.41504,2.48926,1.24512,3.3291.8291.84082,1.9248,1.26074,3.28418,1.26074,1.36035,0,2.46094-.41992,3.30078-1.26074Z"/>
    <path d="M468.50888,107.06727h2.28027c.2002,0,.2998.10059.2998.2998v20.40039c0,.2002-.09961.2998-.2998.2998h-2.19043c-.13965,0-.25977-.07031-.35938-.20996l-9.39062-15.33008c-.01953-.05957-.0498-.08496-.08984-.0752-.04004.01074-.05957.04492-.05957.10547l.03027,15.20996c0,.2002-.10059.2998-.30078.2998h-2.2793c-.2002,0-.30078-.09961-.30078-.2998v-20.40039c0-.19922.10059-.2998.30078-.2998h2.21973c.13965,0,.25977.07031.36035.20996l9.35938,15.33008c.01953.05957.0498.08496.08984.0752.04102-.00977.06055-.04492.06055-.10547l-.03027-15.20996c0-.19922.10059-.2998.2998-.2998Z"/>
    <path d="M481.60459,127.5868c-1.13086-.47949-2.00098-1.15918-2.61133-2.03906-.60938-.87988-.91406-1.91016-.91406-3.09082v-.87012c0-.19922.09961-.2998.29883-.2998h2.19043c.2002,0,.2998.10059.2998.2998v.7207c0,1.01953.43945,1.85938,1.32031,2.51953.87891.66016,2.08984.99023,3.63086.99023,1.37891,0,2.41797-.29004,3.11914-.87012.69922-.58008,1.05078-1.33984,1.05078-2.28027,0-.61914-.18164-1.14941-.54102-1.58984-.35938-.43945-.88477-.84473-1.57422-1.21484-.69141-.37012-1.69531-.81445-3.01562-1.33496-1.46094-.55957-2.61523-1.06934-3.46484-1.53027-.85059-.45996-1.55469-1.06445-2.11523-1.81445s-.83984-1.69531-.83984-2.83496c0-1.71973.61523-3.07031,1.8457-4.0498,1.23047-.98047,2.89453-1.4707,4.99414-1.4707,1.48047,0,2.7793.25098,3.90039.75,1.11914.5,1.98438,1.2002,2.5957,2.10059.60938.89941.91406,1.93945.91406,3.12012v.59961c0,.2002-.09961.2998-.30078.2998h-2.25c-.19922,0-.29883-.09961-.29883-.2998v-.4502c0-1.04004-.41602-1.90527-1.24609-2.59473-.83008-.69043-1.97461-1.03516-3.43359-1.03516-1.24023,0-2.20117.25488-2.88086.76465-.67969.51074-1.01953,1.24512-1.01953,2.20508,0,.66016.16992,1.2002.50977,1.62012s.84375.79492,1.51562,1.125c.66992.33008,1.69336.75488,3.07422,1.27539,1.41992.55957,2.57031,1.0752,3.44922,1.54492.88086.46973,1.61133,1.08984,2.19141,1.85938.58008.77051.86914,1.72559.86914,2.86523,0,1.76074-.64453,3.15527-1.93555,4.18555-1.28906,1.03027-3.06445,1.54492-5.32422,1.54492-1.54102,0-2.875-.24023-4.00391-.7207Z"/>
  </g>
</svg>